#!OML:ASF E:\Style4\Style4.ASF
:FULLY-SPECIFIED
:DEGREES
985
root -0.0574008 17.7449 -1.32403 -0.470921 1.06735 1.87962
lowerback 5.41122 2.48281 -0.568831
upperback 2.17624 3.27917 0.251484
thorax -0.83865 1.63535 0.377721
lowerneck -4.84289 -4.97141 -6.6316
upperneck 19.2829 -6.50717 2.64162
head 6.99374 -3.37444 1.45801
rclavicle 4.24405e-014 -8.74653e-015
rhumerus -7.93989 21.0829 -84.0259
rradius 47.8218
rwrist 19.9662
rhand -29.5578 20.81
rfingers 7.12502
rthumb -2.8904 -9.15021
lclavicle 4.24405e-014 -8.74653e-015
lhumerus 2.69384 -40.7898 75.8982
lradius 88.5367
lwrist -18.6743
lhand -27.7927 27.7303
lfingers 7.12502
lthumb -1.18573 57.7068
rfemur -12.305 2.94071 16.848
rtibia 32.9636
rfoot -18.7587 -13.6647
rtoes -11.7155
lfemur -11.6323 -3.30262 -20.5565
ltibia 31.092
lfoot -18.9091 8.54509
ltoes -16.7176
986
root -0.0508595 17.7443 -1.32172 -0.419292 1.05236 2.08113
lowerback 5.29196 2.39751 -0.760028
upperback 2.19897 3.15678 0.220973
thorax -0.756098 1.57331 0.466628
lowerneck -4.94993 -4.87645 -6.64184
upperneck 19.3615 -6.36474 2.61053
head 7.03033 -3.30888 1.45828
rclavicle 2.09221e-014 0
rhumerus -7.79417 21.7605 -83.7262
rradius 49.4442
rwrist 19.5443
rhand -29.42 20.6718
rfingers 7.12502
rthumb -2.75733 -9.29013
lclavicle 2.09221e-014 0
lhumerus 1.9524 -40.5916 76.3722
lradius 87.301
lwrist -18.7179
lhand -27.5523 27.6483
lfingers 7.12502
lthumb -0.953517 57.6259
rfemur -12.3485 2.88334 16.5847
rtibia 32.9578
rfoot -18.7654 -13.5951
rtoes -12.0085
lfemur -11.6253 -3.3222 -20.8145
ltibia 31.0212
lfoot -18.8229 8.61993
ltoes -16.8625
987
root -0.0468415 17.7431 -1.32227 -0.416467 0.976203 2.08065
lowerback 5.25073 2.32543 -0.700363
upperback 2.22807 3.06389 0.198282
thorax -0.697624 1.52703 0.418374
lowerneck -5.08654 -4.78767 -6.61729
upperneck 19.4891 -6.2415 2.61925
head 7.08891 -3.24691 1.46323
rclavicle 5.11871e-015 -5.96354e-015
rhumerus -7.60416 22.3237 -83.4652
rradius 51.1773
rwrist 19.206
rhand -29.3217 20.5247
rfingers 7.12502
rthumb -2.66235 -9.43848
lclavicle 5.11871e-015 -5.96354e-015
lhumerus 1.21776 -40.4786 76.7327
lradius 85.9529
lwrist -18.5585
lhand -27.4305 27.5083
lfingers 7.12502
lthumb -0.83585 57.4864
rfemur -12.3704 2.95715 16.5681
rtibia 32.8831
rfoot -18.6568 -13.619
rtoes -12.2016
lfemur -11.618 -3.2891 -20.8239
ltibia 31.0309
lfoot -18.8652 8.58114
ltoes -16.4821
988
root -0.0447128 17.7413 -1.32434 -0.518546 0.847691 1.8512
lowerback 5.36655 2.26444 -0.433012
upperback 2.23309 2.99541 0.239293
thorax -0.74462 1.49395 0.310478
lowerneck -5.08435 -4.71361 -6.54611
upperneck 19.569 -6.13887 2.55715
head 7.10489 -3.19848 1.43983
rclavicle 1.55549e-014 9.14409e-015
rhumerus -7.45868 22.8607 -83.2679
rradius 52.9547
rwrist 18.8715
rhand -29.3395 20.3284
rfingers 7.12502
rthumb -2.67963 -9.63456
lclavicle 1.55549e-014 9.14409e-015
lhumerus 0.379796 -40.4583 77.1554
lradius 84.4414
lwrist -18.3024
lhand -27.4319 27.168
lfingers 7.12502
lthumb -0.837207 57.1461
rfemur -12.3181 3.16001 16.8291
rtibia 32.7893
rfoot -18.4798 -13.7598
rtoes -12.3479
lfemur -11.5406 -3.20334 -20.5649
ltibia 31.0874
lfoot -18.9498 8.4772
ltoes -15.8219
989
root -0.0435447 17.7399 -1.32419 -0.701014 0.662559 1.48007
lowerback 5.53309 2.20411 -0.0869749
upperback 2.26841 2.93349 0.369299
thorax -0.789914 1.46403 0.248162
lowerneck -5.00896 -4.64057 -6.55243
upperneck 19.5364 -6.03273 2.50398
head 7.07444 -3.15337 1.43464
rclavicle 1.39149e-014 -1.31198e-014
rhumerus -7.27453 23.493 -82.9813
rradius 54.8535
rwrist 18.6404
rhand -29.4808 20.0896
rfingers 7.12502
rthumb -2.81608 -9.87158
lclavicle 1.39149e-014 -1.31198e-014
lhumerus -0.501379 -40.3414 77.7002
lradius 82.7553
lwrist -18.1855
lhand -27.2355 26.7691
lfingers 7.12502
lthumb -0.647524 56.7479
rfemur -12.1522 3.3817 17.2744
rtibia 32.7823
rfoot -18.4462 -13.8649
rtoes -12.6562
lfemur -11.3397 -3.06317 -20.1494
ltibia 31.1009
lfoot -19.0289 8.45914
ltoes -15.6495
